<?xml version="1.0" standalone="no"?>
<!DOCTYPE svg PUBLIC "-//W3C//DTD SVG 20010904//EN"
 "http://www.w3.org/TR/2001/REC-SVG-20010904/DTD/svg10.dtd">
<svg version="1.0" xmlns="http://www.w3.org/2000/svg"
 width="298.000000pt" height="298.000000pt" viewBox="0 0 298.000000 298.000000"
 preserveAspectRatio="xMidYMid meet">
<metadata>
Created by potrace 1.11, written by Peter Selinger 2001-2013
</metadata>
<g transform="translate(0.000000,298.000000) scale(0.100000,-0.100000)"
fill="#000000" stroke="none">
<path d="M1240 2960 c-303 -53 -568 -194 -790 -419 -118 -120 -204 -240 -274
-385 -77 -158 -124 -307 -144 -456 -9 -71 -9 -337 0 -415 25 -202 117 -445
236 -625 215 -323 542 -545 928 -630 188 -41 460 -35 654 15 546 140 953 569
1082 1140 26 117 33 422 12 535 -8 41 -17 90 -20 109 -3 19 -19 76 -35 125
-172 524 -616 913 -1149 1005 -141 25 -360 25 -500 1z"/>
</g>
</svg>
